<svg xmlns="http://www.w3.org/2000/svg" xmlns:xlink="http://www.w3.org/1999/xlink">
  <symbol viewBox="0 0 39 37" id="icon-house">
    <path d="M15.4 33.22h8.35V21.06H15.4v12.16zm6.84-1.48h-5.32v-9.2h5.27v9.2h.05z"/>
    <path d="M37.9 20.04l1.1-1.07-5.17-5.03V.2h-7.2v6.72L19.47 0 0 19.03l1.1 1.06 4.07-3.96v19.23H3.13v1.47H36.5v-1.47h-2.66V16.08l4.07 3.96zM28.14 1.73h4.13v10.73l-4.13-4.02V1.73zm4.18 33.57H6.73V14.6L19.47 2.14l12.8 12.46v20.7h.05z"/>
    <path d="M15.56 13.84a4.01 4.01 0 004.02 3.96 4.03 4.03 0 004.07-3.96 3.98 3.98 0 00-4.07-3.92 3.94 3.94 0 00-4.02 3.92zm4.02-2.55a2.59 2.59 0 012.6 2.55 2.58 2.58 0 01-2.6 2.54 2.59 2.59 0 01-2.61-2.54c0-1.38 1.2-2.55 2.6-2.55zM10.39 21.06H8.82v1.99h1.57v-1.99zM13.47 21.06H11.9v1.99h1.57v-1.99zM10.39 24.11H8.82v1.99h1.57V24.1zM13.47 24.11H11.9v1.99h1.57V24.1zM27.04 21.06h-1.56v1.99h1.56v-1.99zM30.18 21.06H28.6v1.99h1.57v-1.99zM27.04 24.11h-1.56v1.99h1.56V24.1zM30.18 24.11H28.6v1.99h1.57V24.1z"/>
  </symbol>

  <symbol viewBox="0 0 32 38" id="icon-gift">
    <path d="M30.58 11.2h-12.4c6.91-3.44 7.47-5.62 7.22-6.83-.56-1.98-2.85-3.5-4.98-2.69-2.8 1.07-3.56 5.22-4.32 8.2-.96-3.03-1.88-6.88-4.06-8.85A3.7 3.7 0 009.14 0c-2.03.2-4.92 2.69-3.7 5.47 1.11 2.69 4.82 4.4 7.3 5.78H1.43c-.81 0-1.42.65-1.42 1.41v5.68c0 .8.66 1.42 1.42 1.42h.15V38h28.96V19.77h.05c.81 0 1.42-.66 1.42-1.42v-5.68c0-.8-.66-1.46-1.42-1.46zm-9.35-8.25c1.07-.15 2.5.66 2.64 1.62.2 1.37-1.67 2.63-2.54 3.2-1.27.85-2.49 1.3-3.65 2.02.4-1.88 1.27-6.54 3.55-6.84zM9.75 7.91c-1.12-.76-3.25-2.23-3.2-3.9C6.6 2.2 9.45.72 10.97 2.1c1.93 1.67 2.85 5.57 3.56 8.3-1.63-.8-3.15-1.41-4.78-2.48zm3 28.57h-9.7V19.77h9.7v16.71zm0-18.23H1.52v-5.52h11.23v5.52zm5.08 18.23h-3.6V12.73h3.6v23.75zm11.17 0h-9.65V19.77h9.7v16.71H29zm1.48-18.23H19.35v-5.52h11.13v5.52z"/>
  </symbol>

  <symbol viewBox="0 0 40 35" id="icon-burger">
    <path d="M37.74 23.3H2.26A2.23 2.23 0 000 25.48v1.77c0 1.17 1 2.13 2.26 2.13h.52v.5a5.12 5.12 0 005.2 5.02h24.04c2.89 0 5.2-2.28 5.2-5.01v-.51h.52c1.21 0 2.26-.96 2.26-2.18v-1.77c0-1.12-1-2.13-2.26-2.13zm-2.04 6.59c0 1.92-1.63 3.49-3.63 3.49H7.93c-2 0-3.63-1.57-3.63-3.5v-.5h31.4v.5zm2.73-2.69c0 .36-.32.66-.69.66H2.26a.68.68 0 01-.69-.66v-1.77c0-.3.32-.61.69-.61H37.8c.36 0 .68.3.68.66v1.72h-.05zM8.5 19.2l2.84 2.02 2.89-2.02 2.88 2.02L20 19.2l2.83 2.02 2.9-2.02 2.88 2.02 2.89-2.02 2.88 2.02 3.31-2.38-.9-1.21-2.4 1.67-2.9-2.03-2.88 2.03-2.89-2.03-2.89 2.03L20 17.27l-2.89 2.03-2.88-2.03-2.9 2.03-2.83-2.03-2.88 2.03-2.42-1.67-.94 1.21 3.36 2.38L8.5 19.2zM37.22 15.75c0-.3.05-1.31 0-1.52C36.85 6.33 29.29 0 20 0 10.7 0 3.1 6.33 2.73 14.23v1.52h34.49zM20 1.52c8.4 0 15.33 5.67 15.64 12.71H4.3C4.67 7.2 11.6 1.52 20 1.52z"/>
    <path d="M20 8.61c.58 0 1.05-.45 1.05-1.01S20.58 6.58 20 6.58c-.58 0-1.05.46-1.05 1.02S19.42 8.6 20 8.6zM15.8 6.13c.58 0 1.05-.45 1.05-1.01S16.38 4.1 15.8 4.1c-.58 0-1.05.46-1.05 1.02s.47 1 1.05 1zM24.2 6.13c.58 0 1.05-.45 1.05-1.01S24.78 4.1 24.2 4.1c-.58 0-1.05.46-1.05 1.02s.47 1 1.05 1z"/>
  </symbol>

  <symbol viewBox="0 0 18 15" id="icon-twitter">
    <path d="M11.3.17c1.7-.5 3.1.2 3.7 1.1.7-.2 1.4-.5 2.1-.7 0 .8-.5 1.5-.9 1.7.7.2 1.3-.5 1.3-.5-.2 1-1 1.7-1.6 2-.2 6.6-3.3 11-10.4 10.8H5c-.4 0-4.3-.4-5-1.8 2.3.2 4-.4 4.8-1.1-1-.3-2.8-.5-3.1-2.9.4.1.6.2 1.3.1-1.2-.8-2.6-1.5-2.5-3.7.3.3 1.1.5 1.4.5-.7-.2-2-3.3-.9-4.8 1.9 1.8 3.8 3.5 7.4 3.7.1-2.3 1.1-3.8 2.9-4.4z"/>
  </symbol>

  <symbol viewBox="0 0 9 19" id="icon-facebook">
    <path d="M6.3 3.4h2.4V0H5.8C2.7.2 1.5 2.4 1.9 6.1H0v3.5h2v9.3h3.8V9.6h2.9V6.1H5.8c0-1 0-2.4.5-2.7z"/>
  </symbol>

  <symbol viewBox="0 0 20 14" id="icon-youtube">
    <path d="M17.1 0H2.8C1.3 0 0 1.3 0 2.8v8.3C0 12.7 1.3 14 2.8 14h14.3c1.6 0 2.8-1.3 2.8-2.8V2.8C20 1.3 18.7 0 17.1 0zM7 10.4V3.6L13.8 7 7 10.4z"/>
  </symbol>

  <symbol viewBox="0 0 23 21" id="icon-like">
    <path d="M12.96 3.78l-.62 3.05-.63 2.62h9.09v2.2l-3.03 7.25h-9.4V8.4l4.6-4.62zM2.1 10.5v8.4-8.4zM13.8 0L6.9 6.93c-.42.32-.63.84-.63 1.47v10.5c0 1.16.94 2.1 2.1 2.1h9.4c.84 0 1.57-.52 1.88-1.26l3.14-7.45c.1-.21.1-.53.1-.74v-2.1H23a2.1 2.1 0 00-2.1-2.1h-6.58l1.05-4.83v-.31c0-.43-.21-.84-.42-1.16L13.8 0zM4.18 8.4H0V21h4.18V8.4z"/>
  </symbol>

  <symbol viewBox="0 0 16 20" id="icon-replay">
    <path d="M8 4V0L3 5l5 5V6c3.3 0 6 2.7 6 6s-2.7 6-6 6-6-2.7-6-6H0c0 4.4 3.6 8 8 8s8-3.6 8-8-3.6-8-8-8z"/>
  </symbol>

  <symbol viewBox="0 0 32 30" id="icon-subtitles">
    <path d="M29 0H3C1.3 0 0 1.3 0 3v14c0 1.7 1.3 3 3 3h26c1.7 0 3-1.3 3-3V3c0-1.7-1.3-3-3-3zM14.4 15.9c-.5.1-1.1.1-1.7.1-.7 0-1.4-.1-2-.3-.6-.2-1.2-.6-1.6-1-.4-.4-.8-1.1-1.1-1.9-.3-.8-.4-1.7-.4-2.8 0-1.1.2-2.1.5-2.9.3-.8.7-1.4 1.2-1.9s1.1-.8 1.7-1a9.9 9.9 0 013.5-.1c.5.1.8.2 1.1.3l-.4 1.9-.9-.3H13c-.9 0-1.6.3-2.2 1-.6.7-.8 1.7-.8 3 0 .6.1 1.1.2 1.6s.3.9.6 1.3c.3.3.6.6 1 .8.4.2.9.3 1.4.3.5 0 .9 0 1.3-.1.3-.1.6-.2.9-.4l.5 1.8c-.5.3-1 .4-1.5.6zm8.7 0c-.5.1-1.1.1-1.7.1-.7 0-1.4-.1-2-.3-.6-.2-1.2-.6-1.6-1a4 4 0 01-1.1-1.9c-.3-.8-.4-1.7-.4-2.8 0-1.1.2-2.1.5-2.9.3-.8.7-1.4 1.2-1.9s1.1-.8 1.7-1a9.9 9.9 0 013.5-.1c.5.1.8.2 1.1.3l-.4 1.9L23 6h-1.3c-.9 0-1.6.3-2.2 1-.6.7-.8 1.7-.8 3 0 .6.1 1.1.2 1.6s.3.9.6 1.3c.3.3.6.6 1 .8.4.2.9.3 1.4.3.5 0 .9 0 1.3-.1.3-.1.6-.2.9-.4l.5 1.8c-.5.3-1 .4-1.5.6z"/>
  </symbol>

  <symbol viewBox="0 0 20 20" id="icon-fullscreen">
    <path d="M0 0v6h3V3h3V0H0zM3 14H0v6h6v-3H3v-3zM17 0h-3v3h3v3h3V0h-3zM17 17h-3v3h6v-6h-3v3z"/>
  </symbol>
</svg>
